<svg width="34" height="34" viewBox="0 0 34 34" fill="none" xmlns="http://www.w3.org/2000/svg">
<path fill-rule="evenodd" clip-rule="evenodd" d="M34 17C34 26.3888 26.3888 34 17 34C7.61116 34 0 26.3888 0 17C0 7.61116 7.61116 0 17 0C26.3888 0 34 7.61116 34 17ZM14.5529 22.3052C14.9096 22.7684 15.3234 23 15.8371 23C16.3365 23 16.7788 22.7394 17.0642 22.2762L22.6718 13.1713C22.8288 12.9107 23 12.5633 23 12.2304C23 11.5356 22.4007 11 21.6873 11C21.2449 11 20.8312 11.2606 20.56 11.7238L18.17 15.7479L15.78 19.772L13.3543 16.6309C13.0832 16.2545 12.7122 16.0519 12.2699 16.0519C11.5707 16.0519 11 16.6019 11 17.3402C11 17.6731 11.1141 17.9916 11.3567 18.2955L14.5529 22.3052Z" fill="black"/>
</svg>
